# Blender v2.80 (sub 43) OBJ File: ''
# www.blender.org
mtllib aetherian.mtl
o plane.001_plane.015
v 615.200012 0.160028 -647.664124
v -616.799988 0.160028 -647.664246
v 615.200012 0.160018 -407.664124
v -616.799988 0.160018 -407.664215
v 807.198181 0.160018 -407.666443
v -616.801941 0.160018 -407.662109
v 807.201904 0.159964 824.333618
v -616.798157 0.159964 824.337830
vt 0.000000 0.000000
vt 1.000000 0.000000
vt 0.000000 1.000000
vt 1.000000 1.000000
vt 0.000000 0.000000
vt 1.000000 0.000000
vt 0.000000 1.000000
vt 1.000000 1.000000
vn -0.0000 1.0000 0.0000
usemtl None.014
s 1
f 1/1/1 2/2/1 3/3/1
f 3/3/1 2/2/1 4/4/1
f 5/5/1 6/6/1 7/7/1
f 7/7/1 6/6/1 8/8/1
