# Blender v2.80 (sub 43) OBJ File: ''
# www.blender.org
mtllib alvygardens.mtl
o plane.001_plane.012
v 15.999967 0.159969 -15.628183
v -16.000034 0.159969 -15.628116
v 16.000034 0.160031 16.371817
v -15.999967 0.160031 16.371885
v -0.000080 0.160026 16.371790
v -16.000080 0.160026 16.371946
v 0.000080 0.160058 32.371788
v -15.999921 0.160058 32.371944
vt 0.000000 0.000000
vt 1.000000 0.000000
vt 0.000000 1.000000
vt 1.000000 1.000000
vt 0.000000 0.000000
vt 1.000000 0.000000
vt 0.000000 1.000000
vt 1.000000 1.000000
vn -0.0000 1.0000 -0.0000
usemtl None.011
s 1
f 1/1/1 2/2/1 3/3/1
f 3/3/1 2/2/1 4/4/1
f 5/5/1 6/6/1 7/7/1
f 7/7/1 6/6/1 8/8/1
