# Blender v2.80 (sub 43) OBJ File: ''
# www.blender.org
mtllib amusementpark.mtl
o plane.001_plane.005
v 78.400017 0.160009 -202.802048
v -81.599983 0.160009 -202.802078
v 78.399986 0.159991 197.197952
v -81.600021 0.159991 197.197922
v 62.399994 0.159991 197.197876
v -81.600014 0.159991 197.198044
v 62.400013 0.159991 213.197876
v -81.599998 0.159991 213.198044
vt 0.000000 0.000000
vt 1.000000 0.000000
vt 0.000000 1.000000
vt 1.000000 1.000000
vt 0.000000 0.000000
vt 1.000000 0.000000
vt 0.000000 1.000000
vt 1.000000 1.000000
vn -0.0000 1.0000 0.0000
usemtl None.011
s 1
f 1/1/1 2/2/1 3/3/1
f 3/3/1 2/2/1 4/4/1
f 5/5/1 6/6/1 7/7/1
f 7/7/1 6/6/1 8/8/1
