# Blender v2.80 (sub 43) OBJ File: ''
# www.blender.org
mtllib anarchistsquad.mtl
o plane.001
v 101.600014 0.160292 -96.656517
v -106.399986 0.160292 -96.656532
v 101.599991 0.159708 95.343483
v -106.400017 0.159708 95.343468
v 101.599998 0.159740 95.343460
v -74.399994 0.159740 95.343483
v 101.599998 0.159691 111.343468
v -74.400002 0.159691 111.343483
vt 0.000000 0.000000
vt 1.000000 0.000000
vt 0.000000 1.000000
vt 1.000000 1.000000
vt 0.000000 0.000000
vt 1.000000 0.000000
vt 0.000000 1.000000
vt 1.000000 1.000000
vn -0.0000 1.0000 0.0000
usemtl None.001
s 1
f 1/1/1 2/2/1 3/3/1
f 3/3/1 2/2/1 4/4/1
f 5/5/1 6/6/1 7/7/1
f 7/7/1 6/6/1 8/8/1
