# Blender v2.80 (sub 43) OBJ File: ''
# www.blender.org
mtllib bittrextomorrow.mtl
o plane
v -91.312134 0.160136 108.898277
v 68.687866 0.159816 108.898277
v -91.312134 0.160184 -115.101723
v 68.687866 0.159864 -115.101723
v -91.311401 0.160167 -115.101662
v -107.311401 0.160195 -115.101761
v -91.312866 0.160119 124.898369
v -107.312866 0.160148 124.898254
vt 0.000000 0.000000
vt 1.000000 0.000000
vt 0.000000 1.000000
vt 1.000000 1.000000
vt 0.000000 0.000000
vt 1.000000 0.000000
vt 0.000000 1.000000
vt 1.000000 1.000000
vn 0.0000 1.0000 0.0000
usemtl None.006
s 1
f 1/1/1 2/2/1 3/3/1
f 3/3/1 2/2/1 4/4/1
f 5/5/1 6/6/1 7/7/1
f 7/7/1 6/6/1 8/8/1
