# Blender v2.80 (sub 43) OBJ File: ''
# www.blender.org
mtllib centralmarketplace.mtl
o plane_plane.017
v 135.199860 0.160006 -126.793289
v -136.800156 0.160006 -126.792992
v 135.200150 0.159994 129.206711
v -136.799850 0.159994 129.207016
v 151.199997 0.160006 -126.793152
v 135.199997 0.160006 -126.793144
v 151.199997 0.160001 -14.793146
v 135.199997 0.160001 -14.793143
vt 0.000000 0.000000
vt 1.000000 0.000000
vt 0.000000 1.000000
vt 1.000000 1.000000
vt 0.000000 0.000000
vt 1.000000 0.000000
vt 0.000000 1.000000
vt 1.000000 1.000000
vn 0.0000 1.0000 0.0000
usemtl None.019
s 1
f 1/1/1 2/2/1 3/3/1
f 3/3/1 2/2/1 4/4/1
f 5/5/1 6/6/1 7/7/1
f 7/7/1 6/6/1 8/8/1
