# Blender v2.80 (sub 43) OBJ File: ''
# www.blender.org
mtllib decentramon.mtl
o plane.001_plane.003
v 32.000004 0.160002 -48.299122
v -31.999998 0.160002 -48.299129
v 31.999998 0.159998 47.700878
v -32.000004 0.159998 47.700874
v 0.000010 0.159998 47.700897
v -15.999991 0.159998 47.700878
v -0.000008 0.159997 63.700897
v -16.000010 0.159997 63.700878
vt 0.000000 0.000000
vt 1.000000 0.000000
vt 0.000000 1.000000
vt 1.000000 1.000000
vt 0.000000 0.000000
vt 1.000000 0.000000
vt 0.000000 1.000000
vt 1.000000 1.000000
vn -0.0000 1.0000 0.0000
usemtl None.009
s 1
f 1/1/1 2/2/1 3/3/1
f 3/3/1 2/2/1 4/4/1
f 5/5/1 6/6/1 7/7/1
f 7/7/1 6/6/1 8/8/1
