# Blender v2.80 (sub 43) OBJ File: ''
# www.blender.org
mtllib dragonkingdom.mtl
o plane.003_plane.022
v 297.600281 0.160010 -239.257614
v -310.399750 0.160010 -239.258896
v 297.599731 0.159999 16.742371
v -310.400269 0.159999 16.741125
v 297.599976 0.159999 16.741785
v -294.399994 0.159999 16.741735
v 297.600006 0.159998 48.741787
v -294.399994 0.159998 48.741737
v 297.600067 0.159998 48.741787
v -230.400009 0.159998 48.741749
v 297.600006 0.159987 288.741791
v -230.400024 0.159987 288.741760
v 297.600006 0.159987 288.741791
v 137.600006 0.159987 288.741913
v 297.600037 0.159987 304.741791
v 137.600021 0.159987 304.741943
vt 0.000000 0.000000
vt 1.000000 0.000000
vt 0.000000 1.000000
vt 1.000000 1.000000
vt 0.000000 0.000000
vt 1.000000 0.000000
vt 0.000000 1.000000
vt 1.000000 1.000000
vt 0.000000 0.000000
vt 1.000000 0.000000
vt 0.000000 1.000000
vt 1.000000 1.000000
vt 0.000000 0.000000
vt 1.000000 0.000000
vt 0.000000 1.000000
vt 1.000000 1.000000
vn -0.0000 1.0000 0.0000
usemtl None.022
s 1
f 1/1/1 2/2/1 3/3/1
f 3/3/1 2/2/1 4/4/1
f 5/5/1 6/6/1 7/7/1
f 7/7/1 6/6/1 8/8/1
f 9/9/1 10/10/1 11/11/1
f 11/11/1 10/10/1 12/12/1
f 13/13/1 14/14/1 15/15/1
f 15/15/1 14/14/1 16/16/1
