# Blender v2.80 (sub 43) OBJ File: ''
# www.blender.org
mtllib embassytown.mtl
o plane.001_plane.029
v 23.199903 0.160000 -2.962358
v -24.800097 0.160000 -2.961779
v 23.200096 0.159999 13.037641
v -24.799904 0.159999 13.038220
v 7.200000 0.159999 13.037932
v -8.800000 0.159999 13.037930
v 7.200000 0.159999 29.037933
v -8.800002 0.159999 29.037931
v 39.199986 0.160001 -18.962141
v -24.800018 0.160001 -18.962009
v 39.200016 0.160000 -2.962139
v -24.799986 0.160000 -2.962008
vt 0.000000 0.000000
vt 1.000000 0.000000
vt 0.000000 1.000000
vt 1.000000 1.000000
vt 0.000000 0.000000
vt 1.000000 0.000000
vt 0.000000 1.000000
vt 1.000000 1.000000
vt 0.000000 0.000000
vt 1.000000 0.000000
vt 0.000000 1.000000
vt 1.000000 1.000000
vn 0.0000 1.0000 0.0000
usemtl None
s 1
f 1/1/1 2/2/1 3/3/1
f 3/3/1 2/2/1 4/4/1
f 5/5/1 6/6/1 7/7/1
f 7/7/1 6/6/1 8/8/1
f 9/9/1 10/10/1 11/11/1
f 11/11/1 10/10/1 12/12/1
