# Blender v2.80 (sub 43) OBJ File: ''
# www.blender.org
mtllib engineeringpark.mtl
o plane.001_plane.006
v 52.000008 0.160004 -89.283028
v -59.999996 0.160004 -89.283043
v 51.999996 0.159996 86.716972
v -60.000008 0.159996 86.716965
v 52.000000 0.159996 86.716988
v -76.000008 0.159996 86.716972
v 52.000000 0.159996 102.716980
v -76.000008 0.159996 102.716972
vt 0.000000 0.000000
vt 1.000000 0.000000
vt 0.000000 1.000000
vt 1.000000 1.000000
vt 0.000000 0.000000
vt 1.000000 0.000000
vt 0.000000 1.000000
vt 1.000000 1.000000
vn -0.0000 1.0000 0.0000
usemtl None.005
s 1
f 1/1/1 2/2/1 3/3/1
f 3/3/1 2/2/1 4/4/1
f 5/5/1 6/6/1 7/7/1
f 7/7/1 6/6/1 8/8/1
