# Blender v2.80 (sub 43) OBJ File: ''
# www.blender.org
mtllib fashionstreet2.mtl
o plane.002_plane.032
v 151.199249 0.160017 -377.652893
v -152.800766 0.160017 -377.652252
v 151.200760 0.159984 358.347137
v -152.799240 0.159984 358.347748
v 151.200150 0.159970 358.347748
v -136.799850 0.159970 358.347137
v 151.199844 0.159992 502.347748
v -136.800156 0.159992 502.347168
v 151.200012 0.159978 502.347748
v -120.799980 0.159978 502.347168
v 151.199982 0.159977 518.347778
v -120.800011 0.159977 518.347107
vt 0.000000 0.000000
vt 1.000000 0.000000
vt 0.000000 1.000000
vt 1.000000 1.000000
vt 0.000000 0.000000
vt 1.000000 0.000000
vt 0.000000 1.000000
vt 1.000000 1.000000
vt 0.000000 0.000000
vt 1.000000 0.000000
vt 0.000000 1.000000
vt 1.000000 1.000000
vn 0.0000 1.0000 0.0000
usemtl None.003
s 1
f 1/1/1 2/2/1 3/3/1
f 3/3/1 2/2/1 4/4/1
f 5/5/1 6/6/1 7/7/1
f 7/7/1 6/6/1 8/8/1
f 9/9/1 10/10/1 11/11/1
f 11/11/1 10/10/1 12/12/1
