# Blender v2.80 (sub 43) OBJ File: ''
# www.blender.org
mtllib freedomcity.mtl
o plane.001_plane.023
v 72.800079 0.160003 -71.663841
v -71.199921 0.160003 -71.664001
v 72.799919 0.159997 72.336159
v -71.200081 0.159997 72.335999
v -39.200012 0.159997 72.336052
v -71.200012 0.159997 72.336082
v -39.199997 0.159996 88.336052
v -71.199997 0.159996 88.336082
vt 0.000000 0.000000
vt 1.000000 0.000000
vt 0.000000 1.000000
vt 1.000000 1.000000
vt 0.000000 0.000000
vt 1.000000 0.000000
vt 0.000000 1.000000
vt 1.000000 1.000000
vn -0.0000 1.0000 0.0000
usemtl None.023
s 1
f 1/1/1 2/2/1 3/3/1
f 3/3/1 2/2/1 4/4/1
f 5/5/1 6/6/1 7/7/1
f 7/7/1 6/6/1 8/8/1
