# Blender v2.80 (sub 43) OBJ File: ''
# www.blender.org
mtllib hackercity.mtl
o plane.001_plane.004
v 31.999973 0.160005 -109.051712
v -32.000027 0.160005 -109.051651
v 32.000027 0.160003 -61.051716
v -31.999973 0.160003 -61.051643
v 32.000072 0.160003 -61.051632
v -47.999928 0.160003 -61.051708
v 31.999929 0.159997 66.948372
v -48.000072 0.159997 66.948273
vt 0.000000 0.000000
vt 1.000000 0.000000
vt 0.000000 1.000000
vt 1.000000 1.000000
vt 0.000000 0.000000
vt 1.000000 0.000000
vt 0.000000 1.000000
vt 1.000000 1.000000
vn 0.0000 1.0000 0.0000
usemtl None.003
s 1
f 1/1/1 2/2/1 3/3/1
f 3/3/1 2/2/1 4/4/1
f 5/5/1 6/6/1 7/7/1
f 7/7/1 6/6/1 8/8/1
