# Blender v2.80 (sub 43) OBJ File: ''
# www.blender.org
mtllib motherrussia.mtl
o plane.001_plane.018
v 39.200001 0.160002 -38.712517
v -40.799999 0.160002 -38.712521
v 39.200001 0.160001 -22.712515
v -40.799999 0.160001 -22.712523
v 55.199940 0.160001 -22.712616
v -40.800068 0.160001 -22.712420
v 55.200069 0.159998 41.287380
v -40.799938 0.159998 41.287586
vt 0.000000 0.000000
vt 1.000000 0.000000
vt 0.000000 1.000000
vt 1.000000 1.000000
vt 0.000000 0.000000
vt 1.000000 0.000000
vt 0.000000 1.000000
vt 1.000000 1.000000
vn 0.0000 1.0000 0.0000
usemtl None.018
s 1
f 1/1/1 2/2/1 3/3/1
f 3/3/1 2/2/1 4/4/1
f 5/5/1 6/6/1 7/7/1
f 7/7/1 6/6/1 8/8/1
