# Blender v2.80 (sub 43) OBJ File: ''
# www.blender.org
mtllib musichub.mtl
o plane.001_plane.002
v 40.799847 0.159990 47.042759
v -39.200153 0.159990 47.042503
v 40.800152 0.160010 -48.957241
v -39.199848 0.160010 -48.957500
v -39.199993 0.159998 47.042614
v 24.800009 0.159985 47.042675
v -39.200012 0.159996 63.042614
v 24.799990 0.159983 63.042675
vt 0.000000 0.000000
vt 1.000000 0.000000
vt 0.000000 1.000000
vt 1.000000 1.000000
vt 0.000000 0.000000
vt 1.000000 0.000000
vt 0.000000 1.000000
vt 1.000000 1.000000
vn 0.0000 -1.0000 -0.0000
usemtl None.008
s 1
f 1/1/1 2/2/1 3/3/1
f 3/3/1 2/2/1 4/4/1
f 5/5/1 6/6/1 7/7/1
f 7/7/1 6/6/1 8/8/1
