# Blender v2.80 (sub 43) OBJ File: ''
# www.blender.org
mtllib sandhillroad.mtl
o plane.001_plane.030
v 48.000027 0.159953 -23.940809
v -47.999973 0.159953 -23.940916
v 47.999973 0.160047 24.059193
v -48.000027 0.160047 24.059086
v 0.000010 0.160042 24.059153
v -47.999996 0.160042 24.059099
v -0.000008 0.160070 40.059155
v -48.000011 0.160070 40.059101
vt 0.000000 0.000000
vt 1.000000 0.000000
vt 0.000000 1.000000
vt 1.000000 1.000000
vt 0.000000 0.000000
vt 1.000000 0.000000
vt 0.000000 1.000000
vt 1.000000 1.000000
vn 0.0000 1.0000 -0.0000
usemtl None.001
s 1
f 1/1/1 2/2/1 3/3/1
f 3/3/1 2/2/1 4/4/1
f 5/5/1 6/6/1 7/7/1
f 7/7/1 6/6/1 8/8/1
