# Blender v2.80 (sub 43) OBJ File: ''
# www.blender.org
mtllib surealdistrict.mtl
o plane.001_plane.011
v 46.400005 0.159909 -108.622253
v -49.599998 0.159909 -108.622253
v 46.399998 0.160097 -12.622250
v -49.600002 0.160097 -12.622256
v 46.400009 0.160077 -12.622238
v -33.599998 0.160077 -12.622245
v 46.400002 0.160265 83.377762
v -33.600006 0.160265 83.377762
vt 0.000000 0.000000
vt 1.000000 0.000000
vt 0.000000 1.000000
vt 1.000000 1.000000
vt 0.000000 0.000000
vt 1.000000 0.000000
vt 0.000000 1.000000
vt 1.000000 1.000000
vn 0.0000 1.0000 -0.0000
usemtl None.010
s 1
f 1/1/1 2/2/1 3/3/1
f 3/3/1 2/2/1 4/4/1
f 5/5/1 6/6/1 7/7/1
f 7/7/1 6/6/1 8/8/1
