# Blender v2.80 (sub 43) OBJ File: ''
# www.blender.org
mtllib whaleclub.mtl
o plane_plane.000
v 16.000027 0.160001 -23.671099
v -15.999974 0.160001 -23.671133
v 15.999974 0.159999 24.328901
v -16.000027 0.159999 24.328867
v -15.999991 0.160001 -23.671106
v -31.999989 0.160001 -23.671124
v -16.000008 0.160002 -7.671108
v -32.000008 0.160002 -7.671125
vt 0.000000 0.000000
vt 1.000000 0.000000
vt 0.000000 1.000000
vt 1.000000 1.000000
vt 0.000000 0.000000
vt 1.000000 0.000000
vt 0.000000 1.000000
vt 1.000000 1.000000
vn -0.0000 1.0000 0.0000
usemtl None.028
s 1
f 1/1/1 2/2/1 3/3/1
f 3/3/1 2/2/1 4/4/1
f 5/5/1 6/6/1 7/7/1
f 7/7/1 6/6/1 8/8/1
