# Blender v2.80 (sub 43) OBJ File: ''
# www.blender.org
mtllib yetepey.mtl
o plane.001_plane.008
v 23.200079 0.160003 -72.241798
v -24.799921 0.160003 -72.241844
v 23.199921 0.159997 71.758202
v -24.800079 0.159997 71.758156
v 7.199888 0.159997 71.758057
v -8.800113 0.159997 71.758278
v 7.200114 0.159996 87.758057
v -8.799888 0.159996 87.758293
vt 0.000000 0.000000
vt 1.000000 0.000000
vt 0.000000 1.000000
vt 1.000000 1.000000
vt 0.000000 0.000000
vt 1.000000 0.000000
vt 0.000000 1.000000
vt 1.000000 1.000000
vn -0.0000 1.0000 0.0000
usemtl None.014
s 1
f 1/1/1 2/2/1 3/3/1
f 3/3/1 2/2/1 4/4/1
f 5/5/1 6/6/1 7/7/1
f 7/7/1 6/6/1 8/8/1
